<svg xmlns="http://www.w3.org/2000/svg" width="1200" height="630" viewBox="0 0 1200 630">
  <defs>
    <linearGradient id="bg" x1="0" y1="0" x2="1" y2="1">
      <stop offset="0" stop-color="#00246b"/><stop offset="1" stop-color="#0052cc"/>
    </linearGradient>
    <pattern id="dots" width="26" height="26" patternUnits="userSpaceOnUse">
      <circle cx="1.6" cy="1.6" r="1.6" fill="#ffffff" opacity="0.07"/>
    </pattern>
    <filter id="drop" x="-25%" y="-25%" width="150%" height="150%">
      <feDropShadow dx="0" dy="14" stdDeviation="18" flood-color="#00132f" flood-opacity="0.28"/>
    </filter>
  </defs>
  <rect width="1200" height="630" fill="url(#bg)"/>
  <rect width="1200" height="630" fill="url(#dots)"/>
  
  <ellipse cx="500" cy="330" rx="420" ry="245" fill="#ffffff" opacity="0.05"/>
  <g filter="url(#drop)">
      <rect x="140" y="150" width="185" height="336" rx="16" fill="#ffffff" opacity="0.92"/>
      <rect x="140" y="150" width="185" height="12" rx="6" fill="#0052cc"/>
      <rect x="170" y="192" width="104" height="11" rx="5.5" fill="#dbe2ea"/><rect x="170" y="214" width="70" height="11" rx="5.5" fill="#dbe2ea"/>
      <rect x="170" y="304" width="125" height="138" rx="10" fill="#eef3fa"/>
      
      <rect x="170" y="456" width="125" height="14" rx="7" fill="#dbe2ea"/>
    </g><g filter="url(#drop)">
      <rect x="355" y="150" width="185" height="336" rx="16" fill="#ffffff" opacity="1"/>
      <rect x="355" y="150" width="185" height="12" rx="6" fill="#ffcc00"/>
      <rect x="385" y="192" width="104" height="11" rx="5.5" fill="#dbe2ea"/><rect x="385" y="214" width="70" height="11" rx="5.5" fill="#dbe2ea"/>
      <rect x="385" y="242" width="125" height="200" rx="10" fill="#ffcc00"/>
      <rect x="385" y="242" width="125" height="200" rx="10" fill="#ff9900" opacity="0.25"/>
      <rect x="385" y="456" width="125" height="14" rx="7" fill="#dbe2ea"/>
    </g><g filter="url(#drop)">
      <rect x="570" y="150" width="185" height="336" rx="16" fill="#ffffff" opacity="0.92"/>
      <rect x="570" y="150" width="185" height="12" rx="6" fill="#0052cc"/>
      <rect x="600" y="192" width="104" height="11" rx="5.5" fill="#dbe2ea"/><rect x="600" y="214" width="70" height="11" rx="5.5" fill="#dbe2ea"/>
      <rect x="600" y="330" width="125" height="112" rx="10" fill="#eef3fa"/>
      
      <rect x="600" y="456" width="125" height="14" rx="7" fill="#dbe2ea"/>
    </g>
  
  <g transform="translate(838 150) scale(0.78)" filter="url(#drop)">
    <rect width="250" height="400" rx="32" fill="#0b1a33"/>
    <rect x="11" y="11" width="228" height="378" rx="24" fill="#ffffff"/>
    <rect x="98" y="24" width="54" height="7" rx="3.5" fill="#0b1a33" opacity="0.25"/>
    <rect x="11" y="42" width="228" height="96" fill="#0052cc"/>
    <circle cx="125" cy="138" r="36" fill="#ffffff"/>
    <circle cx="125" cy="138" r="30" fill="#ffcc00"/>
    <rect x="62" y="190" width="126" height="11" rx="5.5" fill="#dbe2ea"/><rect x="62" y="210" width="90" height="11" rx="5.5" fill="#dbe2ea"/>
    
      <rect x="38" y="242" width="174" height="30" rx="8" fill="#eef3fa"/>
      <rect x="52" y="252" width="104" height="10" rx="5" fill="#0052cc" opacity="0.5"/>
      <circle cx="192" cy="257" r="8" fill="#ffcc00"/>
      <rect x="38" y="284" width="174" height="30" rx="8" fill="#eef3fa"/>
      <rect x="52" y="294" width="132" height="10" rx="5" fill="#0052cc" opacity="0.5"/>
      <circle cx="192" cy="299" r="8" fill="#ffcc00"/>
      <rect x="38" y="326" width="174" height="30" rx="8" fill="#eef3fa"/>
      <rect x="52" y="336" width="82" height="10" rx="5" fill="#0052cc" opacity="0.5"/>
      <circle cx="192" cy="341" r="8" fill="#ffcc00"/>
  </g>
</svg>
